# xmcd
#
# Track frame offsets:
#	150
#	13647
#	23322
#
# Disc length: 476 seconds
#
# Revision: 0
# Processed by: cddbd v1.5.2PL0 Copyright (c) Steve Scherf et al.
# Submitted via: audiograbber 1.83.01
#
DISCID=1001da03
DTITLE=Eki Jantunen - Remonttijenkka [CDS)
DYEAR=1993
DGENRE=Pop
TTITLE0=Sitä Se On
TTITLE1=Remonttijenkka
TTITLE2=Nuoruus On Poissa
EXTD=TR.
EXTT0=
EXTT1=
EXTT2=
PLAYORDER=
